<svg xmlns="http://www.w3.org/2000/svg" viewBox="0 0 120 120">
    <rect x="6" y="6" width="108" height="108" rx="16" fill="#fff" stroke="#101014" stroke-width="2"/>
    <circle cx="60" cy="60" r="26" fill="none" stroke="#101014" stroke-width="3"/>
    <circle cx="60" cy="60" r="8" fill="#0f62fe"/>
    <path d="M60 32c8 4 14 12 14 20s-6 16-14 20" fill="none" stroke="#0f62fe" stroke-width="3" stroke-linecap="round"/>
    <path d="M88 60c-4 8-12 14-20 14s-16-6-20-14" fill="none" stroke="#0f62fe" stroke-width="3" stroke-linecap="round"/>
    <path d="M60 88c-8-4-14-12-14-20s6-16 14-20" fill="none" stroke="#0f62fe" stroke-width="3" stroke-linecap="round"/>
    <path d="M32 60c4-8 12-14 20-14s16 6 20 14" fill="none" stroke="#0f62fe" stroke-width="3" stroke-linecap="round"/>
    <circle cx="60" cy="60" r="32" fill="none" stroke="#101014" stroke-width="2" stroke-dasharray="6 4"/>
</svg>
